HIERARCHY
ROOT Hips
{
	OFFSET 0.000000 0.000000 0.000000
	CHANNELS 6 Xposition Yposition Zposition Zrotation Yrotation Xrotation 
	JOINT LHipJoint
	{
		OFFSET 0.000000 0.000000 0.000000
		CHANNELS 3 Zrotation Yrotation Xrotation
		JOINT LeftUpLeg
		{
			OFFSET 1.363060 -1.794630 0.839290
			CHANNELS 3 Zrotation Yrotation Xrotation
			JOINT LeftLeg
			{
				OFFSET 2.448110 -6.726130 0.000000
				CHANNELS 3 Zrotation Yrotation Xrotation
				JOINT LeftFoot
				{
					OFFSET 2.562200 -7.039590 0.000000
					CHANNELS 3 Zrotation Yrotation Xrotation
					JOINT LeftToeBase
					{
						OFFSET 0.157640 -0.433110 2.322550
						CHANNELS 3 Zrotation Yrotation Xrotation
						End Site
						{
							OFFSET 0.000000 0.000000 0.000000
						}
					}
				}
			}
		}
	}
	JOINT RHipJoint
	{
		OFFSET 0.000000 0.000000 0.000000
		CHANNELS 3 Zrotation Yrotation Xrotation
		JOINT RightUpLeg
		{
			OFFSET -1.305520 -1.794630 0.839290
			CHANNELS 3 Zrotation Yrotation Xrotation
			JOINT RightLeg
			{
				OFFSET -2.542530 -6.985550 0.000000
				CHANNELS 3 Zrotation Yrotation Xrotation
				JOINT RightFoot
				{
					OFFSET -2.568260 -7.056230 0.000000
					CHANNELS 3 Zrotation Yrotation Xrotation
					JOINT RightToeBase
					{
						OFFSET -0.164730 -0.452590 2.363150
						CHANNELS 3 Zrotation Yrotation Xrotation
						End Site
						{
							OFFSET 0.000000 0.000000 0.000000
						}
					}
				}
			}
		}
	}
	JOINT LowerBack
	{
		OFFSET 0.000000 0.000000 0.000000
		CHANNELS 3 Zrotation Yrotation Xrotation
		JOINT Spine
		{
			OFFSET 0.028270 2.035590 -0.193380
			CHANNELS 3 Zrotation Yrotation Xrotation
			JOINT Spine1
			{
				OFFSET 0.056720 2.048850 -0.042750
				CHANNELS 3 Zrotation Yrotation Xrotation
				JOINT Neck
				{
					OFFSET 0.000000 0.000000 0.000000
					CHANNELS 3 Zrotation Yrotation Xrotation
					JOINT Neck1
					{
						OFFSET -0.054170 1.746240 0.172020
						CHANNELS 3 Zrotation Yrotation Xrotation
						JOINT Head
						{
							OFFSET 0.104070 1.761360 -0.123970
							CHANNELS 3 Zrotation Yrotation Xrotation
							End Site
							{
								OFFSET 0.000000 0.000000 0.000000
							}
						}
					}
				}
				JOINT LeftShoulder
				{
					OFFSET 0.000000 0.000000 0.000000
					CHANNELS 3 Zrotation Yrotation Xrotation
					JOINT LeftArm
					{
						OFFSET 3.362410 1.200890 -0.311210
						CHANNELS 3 Zrotation Yrotation Xrotation
						JOINT LeftForeArm
						{
							OFFSET 4.983000 -0.000000 -0.000000
							CHANNELS 3 Zrotation Yrotation Xrotation
							JOINT LeftHand
							{
								OFFSET 3.483560 -0.000000 -0.000000
								CHANNELS 3 Zrotation Yrotation Xrotation
								JOINT LeftFingerBase
								{
									OFFSET 0.000000 0.000000 0.000000
									CHANNELS 3 Zrotation Yrotation Xrotation
									JOINT LeftHandIndex1
									{
										OFFSET 0.715260 -0.000000 -0.000000
										CHANNELS 3 Zrotation Yrotation Xrotation
										End Site
										{
											OFFSET 0.000000 0.000000 0.000000
										}
									}
								}
								JOINT LThumb
								{
									OFFSET 0.000000 0.000000 0.000000
									CHANNELS 3 Zrotation Yrotation Xrotation
									End Site
									{
										OFFSET 0.000000 0.000000 0.000000
									}
								}
							}
						}
					}
				}
				JOINT RightShoulder
				{
					OFFSET 0.000000 0.000000 0.000000
					CHANNELS 3 Zrotation Yrotation Xrotation
					JOINT RightArm
					{
						OFFSET -3.136600 1.374050 -0.404650
						CHANNELS 3 Zrotation Yrotation Xrotation
						JOINT RightForeArm
						{
							OFFSET -5.241900 -0.000000 -0.000000
							CHANNELS 3 Zrotation Yrotation Xrotation
							JOINT RightHand
							{
								OFFSET -3.444170 -0.000000 -0.000000
								CHANNELS 3 Zrotation Yrotation Xrotation
								JOINT RightFingerBase
								{
									OFFSET 0.000000 0.000000 0.000000
									CHANNELS 3 Zrotation Yrotation Xrotation
									JOINT RightHandIndex1
									{
										OFFSET -0.622530 -0.000000 -0.000000
										CHANNELS 3 Zrotation Yrotation Xrotation
										End Site
										{
											OFFSET 0.000000 0.000000 0.000000
										}
									}
								}
								JOINT RThumb
								{
									OFFSET 0.000000 0.000000 0.000000
									CHANNELS 3 Zrotation Yrotation Xrotation
									End Site
									{
										OFFSET 0.000000 0.000000 0.000000
									}
								}
							}
						}
					}
				}
			}
		}
	}
}
MOTION
Frames: 10
Frame Time: 0.008333
0.903729 17.861626 -28.144078 2.962740 5.034743 2.035281 -3.411099 6.866233 8.318851 -17.951857 -8.325139 8.320358 -1.753591 2.813507 15.619428 2.050547 -6.161267 8.424965 0.276500 -3.381900 -9.343900 3.982478 -3.142793 1.003491 9.999339 12.378388 -29.613607 0.788602 -5.905125 16.542944 4.872213 -16.746811 11.355167 -0.000000 0.012500 -0.034300 -5.652301 -3.637678 4.493041 3.352367 -4.801049 1.340854 5.993363 -2.816657 -5.984575 -5.861185 -3.277265 -15.084602 3.087995 -3.235901 17.594241 -0.094300 -1.356600 9.522900 -7.402482 1.760383 -1.079831 -75.809727 -5.796106 27.040480 14.586786 -24.633661 -3.647048 -1.228198 -1.338537 -5.829729 34.069853 20.290725 14.549300 -7.125000 0.000000 0.000000 7.369300 55.506500 1.907900 11.821215 -1.845761 -2.736104 73.185444 -2.919064 8.620564 -9.101289 20.516430 -2.203999 1.251801 -0.718990 5.750969 -17.501493 21.025172 -7.112500 7.125000 0.000000 0.000000 6.255400 -7.514600 5.416800 
0.882738 17.895192 -27.924331 2.256661 5.078205 2.049095 -3.376036 6.906198 8.335702 -17.202632 -8.835115 8.142098 -1.575083 3.318848 16.906428 2.002013 -5.927081 9.243894 0.462000 -4.360000 -12.091900 4.071305 -3.211406 1.025399 10.696990 12.734212 -29.236531 0.702753 -5.969140 16.815286 5.041161 -17.370007 12.134685 -0.000200 -0.096500 0.265000 -4.975779 -3.700190 4.488270 3.603233 -4.821605 1.176558 5.881297 -2.820333 -6.199326 -6.358164 -3.625454 -14.615457 3.124524 -3.643105 17.966796 -0.042900 -1.569000 9.580100 -7.392043 1.794224 -1.087751 -76.101741 -5.344089 26.961704 14.713361 -24.803742 -3.703583 -1.221733 -1.335762 -5.964149 34.083301 20.167173 14.475700 -7.125000 0.000000 0.000000 7.391000 55.362800 1.887700 11.836134 -1.840251 -2.747112 73.045744 -3.283812 8.324432 -8.987851 20.366386 -2.165707 1.251327 -0.714786 5.981796 -17.408296 20.838243 -7.015100 7.125000 0.000000 0.000000 6.300100 -7.728300 5.429500 
0.868440 17.923788 -27.703267 1.647515 4.900924 2.018072 -3.326530 6.907214 8.298173 -16.707090 -9.189851 7.848044 -1.303208 3.950933 18.584326 1.869453 -5.389767 9.514708 0.989900 -6.332400 -17.752000 4.131387 -3.249602 1.081602 11.446160 12.873609 -28.906871 0.640342 -6.038581 17.193004 4.865574 -17.105726 12.929928 -0.001800 -0.273000 0.750100 -4.217262 -3.521753 4.278942 3.648749 -4.505735 1.306327 5.453684 -2.686010 -6.011579 -6.225617 -3.918858 -15.015606 3.083588 -4.022995 18.260889 -0.122700 -1.728400 9.756600 -7.394416 1.818794 -1.096688 -76.154950 -5.598350 27.311791 14.706247 -24.770999 -3.697244 -1.210067 -1.287588 -5.938894 33.673837 19.157874 13.613800 -7.125000 0.000000 0.000000 7.000200 54.062000 1.565100 11.835247 -1.810730 -2.707990 73.293070 -2.969202 7.085663 -8.769871 19.971175 -2.073355 1.254000 -0.735473 6.550559 -17.556940 20.752502 -7.053600 7.125000 0.000000 0.000000 6.193400 -7.788200 5.329100 
0.861848 17.944272 -27.483317 1.137112 4.667167 1.952849 -3.279114 6.892689 8.255668 -16.383846 -9.567345 7.660565 -1.059219 4.502579 20.146212 1.923146 -5.674569 10.783558 1.035900 -6.473400 -18.164400 4.161647 -3.274449 1.158087 12.145549 12.876797 -28.606306 0.598679 -6.115264 17.644211 4.397881 -16.116093 13.894081 -0.005500 -0.477900 1.313000 -3.568692 -3.448698 4.174915 3.777465 -4.348267 1.311332 5.202709 -2.614035 -5.999265 -6.178324 -3.924597 -15.210452 2.986138 -4.001041 18.416996 -0.162700 -1.721300 9.847500 -7.402423 1.839735 -1.104699 -76.448369 -5.463768 27.194856 14.667972 -24.711662 -3.677493 -1.216862 -1.290242 -5.972438 33.827707 19.176591 13.704100 -7.125000 0.000000 0.000000 7.176700 54.118800 1.614900 11.851451 -1.799602 -2.684516 73.256011 -2.842249 6.069100 -8.473585 19.479726 -1.951067 1.255788 -0.788351 7.234974 -17.612244 21.074019 -7.193200 7.125000 0.000000 0.000000 6.173600 -7.412400 5.357500 
0.853939 17.957962 -27.272089 0.651342 4.398682 1.835823 -3.224207 6.852295 8.212260 -16.012178 -9.524536 7.254968 -0.805712 5.045767 21.853400 2.284709 -7.299753 12.960186 0.748800 -5.527300 -15.418900 4.176358 -3.297468 1.247265 12.874643 12.823067 -28.277257 0.552133 -6.207893 18.170543 3.901412 -14.993299 14.728030 -0.005100 -0.459300 1.262000 -3.093574 -3.400804 4.349992 4.015456 -4.247374 1.180758 5.188984 -2.550227 -6.285553 -6.296718 -3.844382 -15.110617 2.907805 -3.853685 18.623791 -0.152800 -1.667000 9.906900 -7.411419 1.866861 -1.111207 -76.885131 -4.977470 27.025220 14.620358 -24.645838 -3.653107 -1.220740 -1.313735 -6.156954 34.019006 19.544102 14.042000 -7.125000 0.000000 0.000000 7.371300 54.604800 1.746500 11.881960 -1.798620 -2.684616 72.936993 -3.055317 5.272099 -8.160600 19.004197 -1.832485 1.235292 -0.869680 7.880777 -17.149559 21.834196 -7.258300 7.125000 0.000000 0.000000 6.526500 -6.627000 5.768100 
0.848970 17.971246 -27.059441 0.383481 3.923095 1.679606 -3.181588 6.785970 8.143806 -15.925239 -9.195181 6.814550 -0.513549 5.585181 23.617244 2.426054 -8.176458 15.538705 0.513500 -4.593200 -12.751800 4.170332 -3.302042 1.353918 13.548517 12.393942 -28.042791 0.491881 -6.350527 18.760204 3.430605 -13.998780 15.729629 -0.000000 0.036700 -0.101000 -2.784517 -3.322007 4.472666 4.158584 -4.120626 1.096077 5.151673 -2.474126 -6.491906 -6.412858 -3.673729 -14.769927 2.856569 -3.622481 18.555477 -0.125300 -1.578200 9.821700 -7.414384 1.881933 -1.116057 -77.338018 -4.418631 26.488285 14.621592 -24.649033 -3.652064 -1.227738 -1.337961 -6.126804 34.255733 20.043402 14.490100 -7.125000 0.000000 0.000000 7.607000 55.259000 1.924100 11.910369 -1.814808 -2.690357 72.685837 -3.296657 4.642497 -7.883685 18.574166 -1.728005 1.235357 -0.908821 8.643215 -17.171017 21.968794 -7.320000 7.125000 0.000000 0.000000 6.514900 -6.464400 5.778400 
0.845319 17.995989 -26.839999 0.230196 3.425099 1.635529 -3.148520 6.706649 8.053858 -15.906888 -8.733958 6.198788 -0.200891 6.103853 25.297348 2.401123 -8.222715 18.118031 0.480300 -4.444500 -12.330700 4.134216 -3.290200 1.447649 14.073369 12.002843 -27.953582 0.392125 -6.566946 19.542992 3.009681 -13.053517 16.475501 -0.007200 0.548600 -1.507400 -2.514581 -3.160806 4.407438 4.187660 -3.888080 1.056084 5.001087 -2.354463 -6.540820 -6.343565 -3.648799 -14.622768 2.778780 -3.615717 18.479727 -0.165600 -1.579300 9.765900 -7.413964 1.896657 -1.127680 -77.623747 -3.912953 26.284787 14.711024 -24.775713 -3.691379 -1.213150 -1.379603 -6.241620 34.163003 20.880651 14.980300 -7.125000 0.000000 0.000000 7.417800 56.240400 2.052800 11.927013 -1.827653 -2.681754 72.657421 -3.321342 3.605783 -7.637167 18.155029 -1.638112 1.235989 -0.921720 9.439338 -17.290093 21.693626 -7.288800 7.125000 0.000000 0.000000 6.411700 -6.734700 5.651900 
0.834874 18.020529 -26.622078 0.155276 3.176704 1.638633 -3.112947 6.615949 7.936793 -15.838303 -8.359610 5.416028 0.166458 6.692174 27.168650 2.387004 -8.153928 21.005354 0.436900 -4.241600 -11.757300 4.105454 -3.276863 1.551030 14.374640 11.640171 -27.801599 0.324291 -6.727495 20.170481 2.580990 -12.033324 17.104253 0.000000 -0.031400 0.086200 -2.302769 -3.045292 4.256692 4.124556 -3.722055 1.098144 4.792080 -2.274427 -6.429754 -6.279414 -3.750045 -14.804284 2.811106 -3.754303 18.533427 -0.181700 -1.632100 9.818300 -7.415236 1.923916 -1.139331 -77.739519 -3.542556 26.155202 14.683297 -24.722841 -3.677520 -1.202865 -1.283745 -6.139007 33.636354 18.806805 13.374200 -7.125000 0.000000 0.000000 6.982500 53.644300 1.489800 11.928469 -1.820806 -2.658828 72.791693 -3.157487 2.586479 -7.483073 17.869427 -1.586756 1.215525 -0.933409 10.131075 -17.100556 21.485284 -7.143600 7.125000 0.000000 0.000000 6.522200 -6.975100 5.720000 
0.820678 18.022760 -26.414500 0.174814 3.245415 1.666299 -3.063151 6.534772 7.824106 -15.758633 -8.149875 4.768941 0.557208 7.267950 28.983450 2.365834 -7.857381 23.771321 0.435700 -4.235900 -11.741200 4.045093 -3.285998 1.644541 14.501166 11.385117 -27.698178 0.220205 -6.935436 20.881523 2.366496 -11.424350 17.138788 -0.041000 -1.307600 3.595500 -2.485352 -3.251158 4.258811 4.360525 -4.017121 0.769582 5.181158 -2.384111 -6.761730 -6.807647 -3.449783 -13.886066 2.910912 -3.338824 18.356002 -0.012200 -1.477500 9.594500 -7.412941 1.943478 -1.137585 -78.374128 -2.318163 25.062712 14.498013 -24.437343 -3.595096 -1.199660 -1.073646 -5.669529 32.835239 14.266570 10.063200 -7.125000 0.000000 0.000000 6.362100 48.017600 0.475400 11.970404 -1.860662 -2.694845 72.214004 -3.664988 2.637217 -7.297725 17.632185 -1.530806 1.203660 -0.953738 10.506669 -16.753698 21.563052 -7.027800 7.125000 0.000000 0.000000 6.749300 -6.929100 5.928100 
0.802932 18.088978 -26.204184 0.192788 3.262109 1.602454 -3.057701 6.415472 7.650210 -15.686844 -7.939244 3.583319 0.962293 7.874189 30.862487 2.469208 -7.796505 27.403583 0.387500 -3.997500 -11.069600 4.021537 -3.285384 1.779059 14.721115 10.947213 -27.445427 0.113468 -7.122739 21.558733 2.278646 -11.029043 16.736233 -0.050600 -1.451100 3.991000 -2.475050 -3.172204 4.401999 4.346370 -3.920902 0.957489 5.177602 -2.332754 -6.622802 -6.713982 -3.576352 -15.054296 2.951606 -3.376886 18.668045 -0.018500 -1.476400 9.922000 -7.432847 1.990598 -1.152687 -78.561082 -2.403964 25.185151 14.478007 -24.383629 -3.585144 -1.188433 -1.008311 -5.887883 32.467049 12.692070 8.894500 -7.125000 0.000000 0.000000 6.035000 46.047400 0.156600 11.964594 -1.801209 -2.640460 72.239071 -3.106512 1.842781 -7.173214 17.372160 -1.486356 1.198106 -0.953325 10.926125 -16.815480 21.258182 -6.959500 7.125000 0.000000 0.000000 6.689200 -7.241100 5.833600 
